<?xml version="1.0" encoding="UTF-8"?><svg id="Layer_1" xmlns="http://www.w3.org/2000/svg" width="222.8" height="323.6" viewBox="0 0 222.8 323.6"><path d="m222.4,314.1c0,5-4.1,9.2-9.2,9.2H9.5c-5,0-9.1-4.1-9.1-9.2V9.5C.3,4.5,4.4.3,9.5.3h203.8c5,0,9.2,4.1,9.2,9.2v304.6h0Z" fill="#fff" stroke="#000" stroke-miterlimit="5.3" stroke-width=".7"/><path d="m42.4,16.1c-1.2,0-2.2.6-3,1.4-.2,0-.4,0-.6,0-4.5,0-6,3.5-6.6,6.1,0,.2-.1.5-.2.8-.6-5.7-1.3-9.3-2-11.6.5-.7.9-1.5.9-2.4,0-2.1-1.7-3.8-3.8-3.8s-3.8,1.7-3.8,3.8.3,1.7.9,2.4c-.7,2.3-1.4,6-2,11.6,0-.3-.1-.5-.2-.8-.7-2.6-2.1-6.1-6.6-6.1-.2,0-.4,0-.6,0-.7-.9-1.8-1.4-3-1.4-2.1,0-3.8,1.7-3.8,3.8s1.7,3.8,3.8,3.8,1.6-.3,2.2-.7c.4.9.8,2.3,1.1,4.5.6,4.3.6,10,.6,15.4s.9,1.9,1.9,1.9h19.2c1.1,0,1.9-.9,1.9-1.9,0-5.4,0-11.1.6-15.4.3-2.2.7-3.6,1.1-4.5.6.4,1.4.7,2.2.7,2.1,0,3.8-1.7,3.8-3.8s-1.7-3.8-3.8-3.8Zm-30.7,5.8c-1.1,0-1.9-.9-1.9-1.9s.9-1.9,1.9-1.9,1.9.9,1.9,1.9-.9,1.9-1.9,1.9Zm5.8,21.1c0-8.4,0-17.7-2.2-21.5.2-.5.3-1,.3-1.5s0-.4,0-.5c4.5.1,5.8,4.9,5.8,23.6h-3.8ZM27.1,8.4c1.1,0,1.9.9,1.9,1.9s-.9,1.9-1.9,1.9-1.9-.9-1.9-1.9.9-1.9,1.9-1.9Zm-3.8,34.5c0-16.3,1.4-24.8,2.5-29,.4.1.8.2,1.3.2s.9,0,1.3-.2c1.1,4.2,2.5,12.7,2.5,29h-7.7Zm13.4,0h-3.8c0-18.6,1.3-23.4,5.8-23.6,0,.2,0,.4,0,.5,0,.5.1,1.1.3,1.5-2.2,3.7-2.2,13.1-2.2,21.5Zm5.8-21.1c-1.1,0-1.9-.9-1.9-1.9s.9-1.9,1.9-1.9,1.9.9,1.9,1.9-.9,1.9-1.9,1.9Z"/><path d="m212,286.7c-1.2,0-2.2.6-3,1.4-.2,0-.4,0-.6,0-4.5,0-6,3.5-6.6,6.1,0,.2-.1.5-.2.8-.6-5.7-1.3-9.3-2-11.6.5-.7.9-1.5.9-2.4,0-2.1-1.7-3.8-3.8-3.8s-3.8,1.7-3.8,3.8.3,1.7.9,2.4c-.7,2.3-1.4,6-2,11.6,0-.3-.1-.5-.2-.8-.7-2.6-2.1-6.1-6.6-6.1-.2,0-.4,0-.6,0-.7-.9-1.8-1.4-3-1.4-2.1,0-3.8,1.7-3.8,3.8s1.7,3.8,3.8,3.8,1.6-.3,2.2-.7c.4.9.8,2.3,1.1,4.5.6,4.3.6,10,.6,15.4s.9,1.9,1.9,1.9h19.2c1.1,0,1.9-.9,1.9-1.9,0-5.4,0-11.1.6-15.4.3-2.2.7-3.6,1.1-4.5.6.4,1.4.7,2.2.7,2.1,0,3.8-1.7,3.8-3.8s-1.7-3.8-3.8-3.8Zm-30.7,5.8c-1.1,0-1.9-.9-1.9-1.9s.9-1.9,1.9-1.9,1.9.9,1.9,1.9-.9,1.9-1.9,1.9Zm5.8,21.1c0-8.4,0-17.7-2.2-21.5.2-.5.3-1,.3-1.5s0-.4,0-.5c4.5.1,5.8,4.9,5.8,23.6h-3.8Zm9.6-34.5c1.1,0,1.9.9,1.9,1.9s-.9,1.9-1.9,1.9-1.9-.9-1.9-1.9.9-1.9,1.9-1.9Zm-3.8,34.5c0-16.3,1.4-24.8,2.5-29,.4.1.8.2,1.3.2s.9,0,1.3-.2c1.1,4.2,2.5,12.7,2.5,29h-7.7Zm13.4,0h-3.8c0-18.6,1.3-23.4,5.8-23.6,0,.2,0,.4,0,.5,0,.5.1,1.1.3,1.5-2.2,3.7-2.2,13.1-2.2,21.5Zm5.8-21.1c-1.1,0-1.9-.9-1.9-1.9s.9-1.9,1.9-1.9,1.9.9,1.9,1.9-.9,1.9-1.9,1.9Z"/><path d="m149.8,134.8c-3,0-5.6,1.4-7.4,3.5-.5,0-1.1-.1-1.6-.1-11.3,0-14.9,8.8-16.6,15.3-.2.6-.3,1.3-.4,1.9-1.4-14.1-3.3-23.3-5-29,1.3-1.6,2.2-3.7,2.2-6,0-5.3-4.3-9.6-9.6-9.6s-9.6,4.3-9.6,9.6.8,4.4,2.2,6c-1.7,5.7-3.6,14.9-5,29-.1-.6-.3-1.3-.4-1.9-1.7-6.6-5.3-15.3-16.6-15.3-.5,0-1.1.1-1.6.1-1.8-2.1-4.4-3.5-7.4-3.5-5.3,0-9.6,4.3-9.6,9.6s4.3,9.6,9.6,9.6,4-.7,5.5-1.8c1,2.3,1.9,5.8,2.6,11.3,1.4,10.8,1.4,24.9,1.4,38.5s2.1,4.8,4.8,4.8h48c2.7,0,4.8-2.1,4.8-4.8,0-13.6,0-27.7,1.4-38.5.7-5.4,1.7-9,2.6-11.3,1.6,1.1,3.5,1.8,5.5,1.8,5.3,0,9.6-4.3,9.6-9.6s-4.3-9.6-9.6-9.6Zm-76.8,14.4c-2.6,0-4.8-2.2-4.8-4.8s2.2-4.8,4.8-4.8,4.8,2.2,4.8,4.8-2.2,4.8-4.8,4.8Zm14.4,52.8c0-21,0-44.4-5.6-53.7.5-1.2.8-2.5.8-3.8s0-.9-.1-1.4c11.4.3,14.5,12.3,14.5,58.9h-9.6Zm24-86.4c2.6,0,4.8,2.2,4.8,4.8s-2.2,4.8-4.8,4.8-4.8-2.2-4.8-4.8,2.2-4.8,4.8-4.8Zm-9.6,86.4c0-40.8,3.5-62.1,6.3-72.6,1,.4,2.1.6,3.3.6s2.2-.2,3.3-.6c2.8,10.5,6.3,31.8,6.3,72.6h-19.2Zm33.6,0h-9.6c0-46.6,3.2-58.6,14.5-58.9,0,.5-.1.9-.1,1.4,0,1.4.3,2.7.8,3.8-5.6,9.4-5.6,32.8-5.6,53.7Zm14.4-52.8c-2.6,0-4.8-2.2-4.8-4.8s2.2-4.8,4.8-4.8,4.8,2.2,4.8,4.8-2.2,4.8-4.8,4.8Z"/></svg>